<svg width="18" height="18" viewBox="0 0 18 18" fill="none" xmlns="http://www.w3.org/2000/svg">
<rect width="18" height="17.6897" rx="8.84483" fill="#FF8A8A"/>
<path d="M10.9102 3.26035C11.1583 3.26035 11.3568 3.06529 11.3568 2.82146V1.7974C11.3568 1.55358 11.1583 1.35852 10.9102 1.35852C10.6621 1.35852 10.4636 1.55358 10.4636 1.7974V2.82146C10.4636 3.06529 10.6621 3.26035 10.9102 3.26035Z" fill="#FDF9F7"/>
<path d="M14.9048 3.04085C14.7311 2.87017 14.4582 2.87017 14.2845 3.04085L13.6146 3.67479C13.441 3.84547 13.441 4.11367 13.6146 4.28435C13.6891 4.3575 13.8131 4.40626 13.9124 4.40626C14.0116 4.40626 14.1356 4.3575 14.2101 4.28435L14.8799 3.65041C15.0536 3.47973 15.0536 3.21153 14.9048 3.04085Z" fill="#FDF9F7"/>
<path d="M16.1951 6.84448H15.1282C14.8801 6.84448 14.6816 7.03954 14.6816 7.28337C14.6816 7.52719 14.8801 7.72225 15.1282 7.72225H16.1951C16.4432 7.72225 16.6416 7.52719 16.6416 7.28337C16.6416 7.03954 16.4432 6.84448 16.1951 6.84448Z" fill="#FDF9F7"/>
<path d="M9.82137 5.84912L9.68449 5.986C9.61518 5.986 9.54761 6.10768 9.54761 6.25977C9.54761 6.41186 9.60305 6.53354 9.67236 6.53354H9.97039C10.0397 6.53354 10.0951 6.41186 10.0951 6.25977C10.0951 6.10768 9.89068 5.84912 9.82137 5.84912Z" fill="#FDF9F7"/>
<path d="M11.19 5.98596L11.0531 6.12285C10.9838 6.12285 10.9163 6.24452 10.9163 6.39661C10.9163 6.54871 10.9717 6.67038 11.041 6.67038H11.339C11.4083 6.67038 11.4638 6.54871 11.4638 6.39661C11.4638 6.24452 11.2593 5.98596 11.19 5.98596Z" fill="#FDF9F7"/>
<path d="M7.3625 4.38188C7.43693 4.45503 7.56098 4.50379 7.66022 4.50379C7.78427 4.50379 7.88352 4.45503 7.95795 4.38188C8.13162 4.2112 8.13162 3.943 7.95795 3.77232L7.21364 3.04085C7.03997 2.87017 6.76706 2.87017 6.59339 3.04085C6.41972 3.21153 6.41972 3.47973 6.59339 3.65041L7.3625 4.38188Z" fill="#FDF9F7"/>
<path d="M13.3169 7.08834C13.3169 5.6254 12.1012 4.43066 10.6126 4.43066C9.39688 4.43066 8.33005 5.23528 8.00751 6.35687C7.80903 6.33249 7.58574 6.30811 7.36245 6.30811C5.50169 6.30811 3.96346 7.67352 3.83941 9.40467C2.45004 9.55096 1.3584 10.6726 1.3584 12.038C1.3584 13.5009 2.62372 14.6713 4.16194 14.6956H9.66979C11.7042 14.6956 13.3417 13.1596 13.3417 11.2577C13.3417 10.4287 13.0192 9.64849 12.4485 9.01455C12.9944 8.50252 13.3169 7.81981 13.3169 7.08834ZM10.6126 5.28405C11.6298 5.28405 12.4485 6.08867 12.4485 7.08834C12.4485 7.62476 12.2252 8.1124 11.8283 8.42937C11.3817 8.13678 10.8855 7.94173 10.3397 7.8442C9.96752 7.30778 9.4465 6.8689 8.85106 6.6007C9.04954 5.84484 9.79384 5.28405 10.6126 5.28405ZM9.6946 13.8423H4.18675C3.09511 13.8423 2.25156 13.062 2.25156 12.038C2.25156 11.0139 3.09511 10.2337 4.18675 10.2337H4.28599C4.5341 10.2337 4.73258 10.0386 4.73258 9.79479V9.59973C4.73258 8.23431 5.92346 7.13711 7.38726 7.13711C7.70979 7.13711 7.9827 7.18587 8.25562 7.2834C8.87587 7.47846 9.39688 7.89296 9.71941 8.45376C9.79384 8.57567 9.91789 8.64881 10.0419 8.6732C10.5878 8.72196 11.1088 8.9414 11.5306 9.28276C11.605 9.3559 11.7042 9.42905 11.7787 9.5022C12.25 9.98985 12.523 10.6238 12.523 11.2577C12.4981 12.6963 11.2328 13.8423 9.6946 13.8423Z" fill="#FDF9F7"/>
<path d="M11.1903 7.48914C11.1903 7.79153 10.9451 8.03667 10.6427 8.03667C10.3404 8.03667 10.0952 7.79153 10.0952 7.48914C10.0952 7.18674 10.3404 7.48912 10.6427 7.48912C10.9451 7.48912 11.1903 7.18674 11.1903 7.48914Z" fill="#FDF9F7"/>
</svg>
